<svg width="1023" height="179" viewBox="0 0 1023 179" fill="none" xmlns="http://www.w3.org/2000/svg">
    <path d="M97.4084 0L72.19 0L72.19 54.1432C69.4949 49.1335 61.7946 42.3897 45.4316 42.3897C18.6731 42.3897 0 64.1625 0 91.9085C0 120.618 19.2507 141.813 46.2016 141.813C58.907 141.813 68.5324 136.032 72.7675 128.518C72.7675 132.949 73.345 137.574 73.7301 139.501L98.1784 139.501C97.7934 135.647 97.4084 128.71 97.4084 122.352L97.4084 0ZM25.7959 91.9085C25.7959 74.9526 36.1913 65.3186 49.2817 65.3186C62.3722 65.3186 72.575 74.7599 72.575 91.7158C72.575 108.864 62.3722 118.884 49.2817 118.884C35.8062 118.884 25.7959 108.864 25.7959 91.9085Z" fill="#FFFFFF"/>
    <path d="M124.413 123.701C124.413 133.142 132.114 140.849 141.547 140.849C151.172 140.849 159.065 133.142 159.065 123.701C159.065 114.067 151.172 106.36 141.547 106.36C132.114 106.36 124.413 114.067 124.413 123.701ZM124.221 60.6943C124.221 70.1356 131.921 77.8428 141.354 77.8428C150.979 77.8428 158.872 70.1356 158.872 60.6943C158.872 51.0603 150.979 43.3531 141.354 43.3531C131.921 43.3531 124.221 51.0603 124.221 60.6943Z" fill="#FFFFFF"/>
    <path d="M202.323 81.3111C202.901 72.6405 210.216 62.6211 223.499 62.6211C238.129 62.6211 244.289 71.8698 244.674 81.3111L202.323 81.3111ZM247.177 105.974C244.097 114.452 237.552 120.425 225.616 120.425C212.911 120.425 202.323 111.369 201.745 98.845L269.508 98.845C269.508 98.4596 269.893 94.606 269.893 90.9451C269.893 60.5016 252.375 41.8116 223.114 41.8116C198.858 41.8116 176.527 61.465 176.527 91.7158C176.527 123.701 199.435 142.391 225.424 142.391C248.717 142.391 263.733 128.71 268.545 112.333L247.177 105.974Z" fill="#FFFFFF"/>
    <path d="M277.193 139.501H306.069C309.342 134.298 322.047 115.608 325.512 110.406L345.34 139.501H375.371L341.105 91.1378L374.216 44.7018H345.148L326.475 72.8331C323.202 67.6308 310.882 49.9042 307.609 44.7018L277.193 44.7018L310.882 91.9085L277.193 139.501Z" fill="#FFFFFF"/>
    <path d="M429.98 65.5113C442.686 65.5113 448.653 73.6039 450.963 81.5038L473.872 73.7965C469.829 57.8041 455.199 41.8116 429.403 41.8116C401.874 41.8116 380.313 62.8138 380.313 92.1012C380.313 121.196 402.259 142.391 430.173 142.391C455.391 142.391 470.214 126.206 474.449 110.406L451.926 102.891C449.808 110.213 443.263 118.884 430.173 118.884C417.082 118.884 405.917 109.25 405.917 92.1012C405.917 74.9526 416.89 65.5113 429.98 65.5113Z" fill="#FFFFFF"/>
    <path d="M518.881 83.8159C519.458 73.4112 525.811 65.3186 536.591 65.3186C548.912 65.3186 554.109 73.6039 554.109 84.2013V139.501H579.713V79.7697C579.713 58.9602 568.547 42.197 544.484 42.197C535.436 42.197 525.041 45.2799 518.881 52.6017V0L493.277 0V139.501H518.881V83.8159Z" fill="#FFFFFF"/>
    <path d="M599.923 113.681C599.923 128.518 612.243 142.198 632.457 142.198C646.51 142.198 655.557 135.647 660.37 128.132C660.37 131.793 660.755 136.996 661.333 139.501H684.818C684.241 136.225 683.663 129.481 683.663 124.471V77.8428C683.663 58.7675 672.498 41.8116 642.467 41.8116C617.056 41.8116 603.388 58.1895 601.848 73.0258L624.564 77.8428C625.334 69.5576 631.494 62.4284 642.659 62.4284C653.44 62.4284 658.638 68.0161 658.638 74.76C658.638 78.0355 656.905 80.733 651.515 81.5038L628.221 84.972C612.436 87.2842 599.923 96.7255 599.923 113.681ZM637.847 123.123C629.569 123.123 625.526 117.728 625.526 112.14C625.526 104.818 630.724 101.157 637.269 100.194L658.638 96.9182V101.157C658.638 117.92 648.627 123.123 637.847 123.123Z" fill="#FFFFFF"/>
    <path d="M735.075 84.972C735.075 73.9892 741.62 65.3186 752.785 65.3186C765.106 65.3186 770.303 73.6039 770.303 84.2013V139.501L795.907 139.501V79.7697C795.907 58.9602 785.126 42.197 761.641 42.197C751.438 42.197 740.08 46.6286 734.305 56.4553V44.7018L709.471 44.7018V139.501H735.075V84.972Z" fill="#FFFFFF"/>
    <path d="M815.154 144.703C817.85 162.815 835.175 179 861.164 179C896.777 179 910.83 155.3 910.83 129.288V44.7018L886.189 44.7018V55.8773C882.917 49.5188 874.254 42.9677 859.238 42.9677C833.25 42.9677 815.154 64.1625 815.154 89.211C815.154 115.801 834.02 135.262 859.238 135.262C872.906 135.262 881.762 129.288 885.612 123.123V130.059C885.612 148.364 876.564 156.456 860.393 156.456C848.266 156.456 839.988 148.942 838.255 138.537L815.154 144.703ZM863.666 113.296C850.383 113.296 840.95 104.047 840.95 89.211C840.95 74.5673 850.961 65.3186 863.666 65.3186C875.987 65.3186 885.997 74.5673 885.997 89.211C885.997 103.855 876.757 113.296 863.666 113.296Z" fill="#FFFFFF"/>
    <path d="M955.43 81.3111C956.008 72.6405 963.323 62.6211 976.606 62.6211C991.236 62.6211 997.397 71.8698 997.782 81.3111H955.43ZM1000.28 105.974C997.204 114.452 990.659 120.425 978.723 120.425C966.018 120.425 955.43 111.369 954.853 98.845L1022.61 98.845C1022.61 98.4596 1023 94.606 1023 90.9451C1023 60.5016 1005.48 41.8116 976.221 41.8116C951.965 41.8116 929.634 61.465 929.634 91.7158C929.634 123.701 952.542 142.391 978.531 142.391C1001.82 142.391 1016.84 128.71 1021.65 112.333L1000.28 105.974Z" fill="#FFFFFF"/>
</svg>

