<svg xmlns="http://www.w3.org/2000/svg" viewBox="0 0 48 60" x="0px" y="0px"><path d="m24,4C12.97003,4,4,12.96997,4,24s8.97003,20,20,20,20-8.97003,20-20S35.03003,4,24,4Zm11.56,23.5c-1.92999,0-3.5-1.57001-3.5-3.5s1.57001-3.5,3.5-3.5,3.5,1.57001,3.5,3.5-1.57001,3.5-3.5,3.5Zm-26.62-3.5c0-1.92999,1.57001-3.5,3.5-3.5s3.5,1.57001,3.5,3.5-1.57001,3.5-3.5,3.5-3.5-1.57001-3.5-3.5Zm11.56,0c0-1.92999,1.57001-3.5,3.5-3.5s3.5,1.57001,3.5,3.5-1.57001,3.5-3.5,3.5-3.5-1.57001-3.5-3.5Z"/><text x="0" y="63" fill="#000000" font-size="5px" font-weight="bold" font-family="'Helvetica Neue', Helvetica, Arial-Unicode, Arial, Sans-serif">Created by Selot Lo</text><text x="0" y="68" fill="#000000" font-size="5px" font-weight="bold" font-family="'Helvetica Neue', Helvetica, Arial-Unicode, Arial, Sans-serif">from the Noun Project</text></svg>